<svg width="16" height="16" viewBox="0 0 16 16" fill="none" xmlns="http://www.w3.org/2000/svg">
  <path d="M13 10C13 10 12 10.5 11.5 11C11 11.5 11 12.5 11 12.5H5C5 12.5 5 11.5 4.5 11C4 10.5 3 10 3 10V7C3 6.44772 3.44772 6 4 6H12C12.5523 6 13 6.44772 13 7V10Z" stroke="#1F2937" stroke-width="1.5" stroke-linecap="round" stroke-linejoin="round"/>
  <path d="M8 9C8.55228 9 9 8.55228 9 8C9 7.44772 8.55228 7 8 7C7.44772 7 7 7.44772 7 8C7 8.55228 7.44772 9 8 9Z" fill="#1F2937"/>
  <path d="M10.5 6V5C10.5 4.17157 9.82843 3.5 9 3.5H7C6.17157 3.5 5.5 4.17157 5.5 5V6" stroke="#1F2937" stroke-width="1.5" stroke-linecap="round" stroke-linejoin="round"/>
</svg>
